{"glyphs":{":":{"x_min":0,"x_max":271,"ha":271,"o":"m 100 320 q 100 351 123 373 q 146 395 177 395 q 209 395 232 373 q 255 351 255 319 q 255 286 231 263 q 208 240 178 240 q 146 240 123 264 q 100 288 100 320 z m 43 69 q 43 100 66 122 q 88 144 120 144 q 152 144 175 122 q 198 100 198 68 q 198 35 175 12 q 151 -11 121 -11 q 89 -11 66 13 q 43 37 43 69 z"},"$":{"x_min":0,"x_max":490,"ha":490,"o":"m 395 674 l 419 674 l 407 616 q 517 583 517 500 q 517 472 500 453 q 483 434 457 434 q 436 434 423 448 q 409 462 409 482 q 409 511 432 523 q 450 534 450 542 q 450 568 400 582 l 357 372 q 476 329 476 209 q 476 134 428 73 q 379 13 276 -8 l 254 -115 l 229 -115 l 251 -10 q 215 -12 177 -7 l 154 -115 l 131 -115 l 152 -1 q 27 35 27 130 q 27 167 46 187 q 66 207 91 207 q 110 207 128 193 q 146 179 146 153 q 146 110 111 97 q 109 97 97 92 q 85 87 85 81 q 85 72 103 57 q 121 42 159 31 l 213 281 q 100 320 100 425 q 100 489 144 546 q 188 603 284 621 l 295 674 l 319 674 l 309 624 q 342 626 383 621 z m 302 589 l 263 400 l 334 379 l 376 588 q 351 592 336 592 q 319 592 302 589 z m 240 409 l 277 586 q 167 559 167 486 q 167 432 240 409 z m 259 27 l 307 254 l 237 274 l 185 27 q 203 24 221 24 q 238 24 259 27 z m 330 246 l 285 30 q 406 61 406 153 q 406 221 330 246 z"},"?":{"x_min":0,"x_max":438,"ha":438,"o":"m 203 200 l 171 200 q 177 292 202 338 q 228 385 299 444 q 369 503 369 555 q 369 588 343 612 q 317 635 273 635 q 239 635 211 622 q 183 609 183 595 q 183 587 195 584 q 239 564 239 528 q 239 504 220 486 q 202 468 174 468 q 144 468 124 488 q 105 508 105 536 q 105 590 155 628 q 206 666 279 666 q 366 666 413 620 q 460 575 460 504 q 460 450 428 399 q 396 348 272 271 q 216 236 203 200 z m 92 68 q 92 100 115 123 q 138 146 170 146 q 202 146 225 123 q 248 100 248 68 q 248 35 225 13 q 202 -10 170 -10 q 138 -10 115 13 q 92 35 92 68 z"},"<":{"x_min":0,"x_max":667,"ha":667,"o":"m 642 62 l 103 287 l 103 369 l 642 594 l 642 497 l 226 328 l 642 160 z"},"'":{"x_min":0,"x_max":281,"ha":281,"o":"m 168 345 l 170 515 q 171 591 190 622 q 210 652 233 661 q 255 670 273 670 q 297 670 312 656 q 326 641 326 621 q 326 594 308 560 l 191 345 z"},"=":{"x_min":0,"x_max":667,"ha":667,"o":"m 102 490 l 640 490 l 640 400 l 102 400 z m 102 258 l 640 258 l 640 168 l 102 168 z"},"a":{"x_min":0,"x_max":542,"ha":542,"o":"m 361 385 l 492 385 l 425 122 q 416 83 416 72 q 416 48 432 48 q 464 48 502 141 l 528 122 q 470 -11 382 -11 q 313 -11 293 55 q 238 -11 166 -11 q 106 -11 66 30 q 25 70 25 134 q 25 235 99 315 q 172 395 263 395 q 325 395 347 337 l 349 337 z m 273 361 q 245 361 229 337 q 212 313 182 196 q 151 79 151 54 q 151 19 189 19 q 219 19 252 51 q 286 83 308 175 q 331 267 331 300 q 331 323 315 342 q 299 361 273 361 z"},"L":{"x_min":0,"x_max":646,"ha":646,"o":"m 386 621 l 262 34 l 322 34 q 378 34 417 43 q 457 53 502 93 q 547 134 590 220 l 625 220 l 573 0 l 22 0 l 30 34 l 105 34 l 227 621 l 137 621 l 144 655 l 473 655 l 466 621 z"},"3":{"x_min":0,"x_max":490,"ha":490,"o":"m 195 361 l 244 359 q 304 359 334 414 q 365 470 365 540 q 365 611 299 611 q 272 611 255 601 q 237 591 237 581 q 237 576 250 567 q 276 552 276 516 q 276 488 257 469 q 237 450 208 450 q 177 450 159 470 q 142 491 142 516 q 142 566 193 607 q 243 648 325 648 q 410 648 459 607 q 509 567 509 510 q 509 392 293 342 l 293 340 q 468 316 468 195 q 468 112 396 50 q 323 -11 213 -11 q 129 -11 83 27 q 38 65 38 116 q 38 149 59 170 q 79 191 113 191 q 144 191 162 171 q 180 151 180 124 q 180 87 143 66 q 126 58 126 51 q 126 39 146 32 q 167 26 191 26 q 266 26 293 113 q 320 201 320 259 q 320 289 299 306 q 278 324 245 324 l 194 319 q 161 319 161 338 q 161 350 172 355 q 184 361 195 361 z"},";":{"x_min":0,"x_max":323,"ha":323,"o":"m 124 301 q 124 333 147 356 q 170 379 202 379 q 234 379 257 356 q 280 333 280 301 q 280 269 257 246 q 234 223 202 223 q 170 223 147 246 q 124 269 124 301 z m 29 -189 l 18 -161 q 114 -125 146 -79 q 178 -34 178 -4 q 178 15 167 15 q 163 15 159 11 l 139 -12 q 127 -25 104 -25 q 80 -25 60 -5 q 40 15 40 45 q 40 81 64 106 q 88 131 124 131 q 164 131 193 100 q 223 69 223 24 q 223 -40 176 -97 q 128 -154 29 -189 z"},"J":{"x_min":0,"x_max":542,"ha":542,"o":"m 594 655 l 587 621 l 510 621 l 408 131 q 380 -6 308 -59 q 236 -112 154 -112 q 88 -112 53 -80 q 19 -48 19 -8 q 19 24 40 47 q 62 71 93 71 q 121 71 142 53 q 163 36 163 4 q 163 -26 148 -41 q 134 -55 134 -62 q 134 -78 160 -78 q 208 -78 229 24 l 353 621 l 263 621 l 270 655 z"},"V":{"x_min":0,"x_max":698,"ha":698,"o":"m 135 655 l 448 655 l 441 621 l 366 621 l 347 214 l 349 212 l 660 621 l 572 621 l 579 655 l 774 655 l 767 621 l 702 621 l 218 -14 l 184 -14 l 214 621 l 128 621 z"},"\"":{"x_min":0,"x_max":555,"ha":555,"o":"m 378 345 l 380 515 q 381 591 400 622 q 420 652 443 661 q 465 670 483 670 q 507 670 521 656 q 536 641 536 621 q 536 594 518 560 l 401 345 z m 178 345 l 180 515 q 181 591 200 622 q 220 652 243 661 q 266 670 283 670 q 307 670 322 656 q 336 641 336 621 q 336 594 318 560 l 201 345 z"},"7":{"x_min":0,"x_max":490,"ha":490,"o":"m 192 634 l 550 634 l 541 589 l 521 562 q 370 360 336 290 q 303 220 303 173 q 303 164 309 122 q 317 90 317 73 q 317 40 293 14 q 270 -11 229 -11 q 191 -11 168 11 q 144 33 144 65 q 144 94 161 128 q 178 162 265 283 q 352 405 440 510 l 240 510 q 196 510 180 503 q 164 497 152 469 l 133 428 l 96 428 z"},"S":{"x_min":0,"x_max":646,"ha":646,"o":"m 642 660 l 602 468 l 568 468 q 557 636 406 636 q 353 636 320 611 q 287 586 287 549 q 287 516 315 490 q 342 464 405 439 q 467 413 503 392 q 540 370 565 330 q 591 290 591 226 q 591 126 515 57 q 438 -11 335 -11 q 286 -11 252 2 q 182 33 156 33 q 125 33 108 2 l 71 2 l 114 206 l 147 206 q 161 115 214 69 q 267 23 338 23 q 407 23 448 64 q 489 106 489 158 q 489 191 465 217 q 442 244 350 280 q 258 315 221 364 q 185 412 185 472 q 185 553 249 611 q 313 670 406 670 q 440 670 462 665 q 485 659 521 646 q 558 633 567 633 q 590 633 608 660 z"},"}":{"x_min":0,"x_max":394,"ha":394,"o":"m 91 -201 l 91 -179 q 186 -160 186 -88 q 186 -50 174 -9 q 162 33 162 79 q 162 125 201 172 q 240 219 322 236 l 322 238 q 233 263 197 307 q 161 352 161 397 q 161 422 173 476 q 185 529 185 561 q 185 637 91 655 l 91 678 q 191 678 241 628 q 292 578 292 524 q 292 486 279 437 q 266 387 266 353 q 266 269 361 253 l 361 223 q 313 215 290 187 q 266 158 266 119 q 266 84 279 31 q 291 -21 291 -45 q 291 -98 245 -147 q 198 -196 91 -201 z"},"Z":{"x_min":0,"x_max":646,"ha":646,"o":"m 188 655 l 671 655 l 671 633 l 216 34 l 302 34 q 386 34 435 69 q 484 104 555 217 l 589 217 l 545 0 l 25 0 l 25 34 l 472 621 l 411 621 q 352 621 320 612 q 288 604 256 570 q 224 536 181 460 l 148 460 z"},"x":{"x_min":0,"x_max":542,"ha":542,"o":"m 482 142 l 508 128 q 448 -11 352 -11 q 274 -11 258 55 l 240 128 l 172 49 q 143 15 126 2 q 109 -11 85 -11 q 60 -11 42 7 q 24 25 24 52 q 24 77 40 93 q 56 109 78 109 q 98 109 116 92 q 134 74 142 74 q 151 74 172 98 l 230 166 l 197 294 q 196 294 196 297 q 189 333 177 333 q 151 333 105 238 l 78 251 q 146 395 235 395 q 272 395 293 375 q 313 354 331 285 l 358 314 q 368 328 401 362 q 434 395 466 395 q 488 395 503 379 q 518 364 518 336 q 518 310 502 294 q 486 279 466 279 q 444 279 428 295 q 413 311 408 311 q 397 311 378 289 l 341 246 l 386 73 q 391 55 394 49 q 397 44 406 44 q 430 44 482 142 z"},")":{"x_min":0,"x_max":375,"ha":375,"o":"m -65 -251 l -57 -219 q 34 -167 85 -95 q 136 -24 180 153 q 224 330 224 413 q 224 537 156 636 l 165 668 q 342 513 342 299 q 342 115 237 -42 q 131 -198 -65 -251 z"},"&":{"x_min":0,"x_max":760,"ha":760,"o":"m 721 126 l 742 100 q 668 -11 554 -11 q 463 -11 400 59 q 312 -11 221 -11 q 142 -11 93 37 q 43 84 43 158 q 43 312 248 386 q 231 440 231 479 q 231 561 290 615 q 348 670 435 670 q 500 670 544 641 q 589 611 589 563 q 589 515 549 481 q 509 447 396 412 q 438 305 484 207 q 507 242 536 309 q 565 376 595 399 q 625 423 662 423 q 696 423 719 404 q 742 385 742 350 q 742 320 725 303 q 708 285 684 285 q 657 285 642 302 q 626 318 625 340 q 624 363 613 363 q 594 363 569 301 q 543 239 503 174 q 559 60 620 60 q 667 60 721 126 z m 384 444 q 478 477 478 568 q 478 599 463 618 q 448 637 423 637 q 394 637 375 615 q 356 592 356 566 q 356 529 370 487 q 384 446 384 444 z m 258 356 q 185 317 185 263 q 185 207 223 132 q 261 57 312 57 q 340 57 378 85 q 323 170 258 356 z"},"_":{"x_min":0,"x_max":500,"ha":500,"o":"m -6 -75 l 506 -75 l 506 -125 l -6 -125 z"},"v":{"x_min":0,"x_max":542,"ha":542,"o":"m 51 246 l 26 259 q 89 395 197 395 q 236 395 258 375 q 281 356 281 332 q 281 303 266 242 l 236 121 q 234 117 230 97 q 226 77 226 69 q 226 57 236 46 q 245 36 265 36 q 330 36 395 112 q 461 188 461 259 q 461 285 442 285 q 410 285 397 290 q 384 294 376 309 q 368 324 368 340 q 368 363 383 379 q 398 395 424 395 q 458 395 478 369 q 499 343 499 300 q 499 180 414 84 q 330 -11 213 -11 q 156 -11 128 15 q 99 41 99 77 q 99 99 110 143 l 147 293 q 154 321 154 329 q 154 345 141 345 q 105 345 51 246 z"},"O":{"x_min":0,"x_max":813,"ha":813,"o":"m 531 670 q 653 670 723 602 q 793 533 793 417 q 793 324 737 219 q 680 115 583 52 q 486 -11 367 -11 q 242 -11 173 62 q 104 135 104 231 q 104 388 225 529 q 347 670 531 670 z m 376 23 q 447 23 500 67 q 552 110 595 300 q 637 489 637 534 q 637 583 612 610 q 587 636 518 636 q 416 636 373 562 q 330 489 296 323 q 261 157 261 118 q 261 23 376 23 z"},"(":{"x_min":0,"x_max":375,"ha":375,"o":"m 466 669 l 458 637 q 367 584 316 513 q 265 442 221 265 q 177 88 177 5 q 177 -119 245 -218 l 236 -250 q 59 -95 59 119 q 59 304 164 460 q 270 616 466 669 z"},"C":{"x_min":0,"x_max":760,"ha":760,"o":"m 764 655 l 722 457 l 687 457 q 685 546 639 591 q 594 636 517 636 q 373 636 319 448 q 266 260 266 153 q 266 101 305 62 q 344 23 400 23 q 471 23 543 69 q 615 115 661 201 l 696 201 l 654 3 l 615 3 q 607 31 577 31 q 561 31 518 16 q 475 2 447 -5 q 419 -11 378 -11 q 259 -11 182 62 q 104 135 104 256 q 104 427 233 548 q 362 670 514 670 q 567 670 620 651 q 673 632 684 632 q 712 632 731 655 z"},"W":{"x_min":0,"x_max":969,"ha":969,"o":"m 136 655 l 821 655 l 814 621 l 765 621 l 621 459 l 621 205 l 623 205 l 936 621 l 861 621 l 868 655 l 1045 655 l 1037 621 l 979 621 l 507 -11 l 470 -11 l 470 288 l 206 -11 l 171 -11 l 190 621 l 129 621 z m 470 621 l 343 621 l 331 185 l 333 183 l 470 341 z m 719 621 l 621 621 l 621 512 z"},"A":{"x_min":0,"x_max":729,"ha":729,"o":"m 618 663 l 583 34 l 677 34 l 670 0 l 342 0 l 349 34 l 431 34 l 440 189 l 234 189 l 103 34 l 204 34 l 196 0 l -15 0 l -8 34 l 59 34 l 585 663 z m 442 223 l 455 452 l 453 454 l 262 223 z"},"f":{"x_min":0,"x_max":375,"ha":375,"o":"m 78 386 l 157 386 q 196 527 267 597 q 338 667 422 667 q 463 667 496 644 q 529 621 529 584 q 529 558 511 540 q 494 522 467 522 q 440 522 422 539 q 404 556 404 580 q 404 595 409 608 q 415 621 415 626 q 415 638 398 638 q 362 638 338 590 q 315 542 286 386 l 379 386 l 372 356 l 280 356 q 211 -16 134 -136 q 57 -256 -39 -256 q -81 -256 -113 -232 q -145 -208 -145 -173 q -145 -147 -124 -132 q -104 -116 -77 -116 q -50 -116 -36 -132 q -23 -148 -23 -171 q -23 -195 -22 -207 q -21 -219 -1 -219 q 29 -219 48 -179 q 67 -138 93 37 q 120 211 151 356 l 73 356 z"},"Q":{"x_min":0,"x_max":813,"ha":813,"o":"m 691 -162 l 683 -197 q 609 -207 543 -207 q 397 -207 341 -160 q 285 -114 285 -59 q 285 -48 291 0 q 202 23 153 86 q 105 149 105 237 q 105 388 225 529 q 345 670 531 670 q 656 670 725 600 q 794 530 794 430 q 794 295 706 172 q 618 48 472 3 q 462 -40 462 -64 q 462 -114 502 -141 q 542 -168 614 -168 q 646 -168 691 -162 z m 517 636 l 515 636 q 434 636 388 583 q 342 530 302 353 q 262 175 262 124 q 262 25 377 25 q 459 25 508 76 q 556 126 597 309 q 637 491 637 544 q 637 636 517 636 z"},"w":{"x_min":0,"x_max":760,"ha":760,"o":"m 421 386 l 552 386 l 502 190 q 496 164 495 163 q 483 115 483 83 q 483 64 496 51 q 509 37 525 37 q 581 37 631 124 q 681 211 681 263 q 681 287 664 287 q 636 287 624 291 q 611 294 601 310 q 591 325 591 342 q 591 361 607 378 q 624 395 650 395 q 684 395 703 370 q 721 344 721 311 q 721 210 652 100 q 583 -11 479 -11 q 430 -11 401 23 q 373 58 373 101 q 373 131 379 157 l 377 159 q 325 61 279 25 q 232 -11 175 -11 q 131 -11 108 12 q 85 35 85 62 q 85 91 98 142 l 139 303 q 144 323 144 332 q 144 346 131 346 q 101 346 52 245 l 25 257 q 86 395 188 395 q 228 395 251 375 q 275 355 275 330 q 275 310 262 260 l 219 95 q 212 64 212 59 q 212 41 234 41 q 276 41 333 139 q 389 238 421 386 z"},"-":{"x_min":0,"x_max":427,"ha":427,"o":"m 118 295 l 330 295 l 300 185 l 89 185 z"},"E":{"x_min":0,"x_max":698,"ha":698,"o":"m 722 655 l 683 471 l 650 471 q 650 550 623 586 q 595 621 518 621 l 382 621 l 328 366 l 348 366 q 414 366 451 387 q 487 407 507 477 l 541 477 l 485 204 l 451 204 q 454 222 454 239 q 454 265 442 292 q 430 318 410 325 q 391 332 353 332 l 321 332 l 259 34 l 348 34 q 404 34 447 43 q 489 53 539 94 q 588 134 633 220 l 667 220 l 614 0 l 19 0 l 26 34 l 103 34 l 226 621 l 136 621 l 143 655 z"},"s":{"x_min":0,"x_max":427,"ha":427,"o":"m 79 275 q 79 329 127 362 q 175 395 265 395 q 333 395 371 374 q 408 353 408 319 q 408 298 391 283 q 373 268 349 268 q 326 268 311 282 q 295 296 295 320 q 295 329 297 339 q 300 349 300 353 q 300 371 256 371 q 180 371 180 327 q 180 313 194 300 q 208 287 273 255 q 338 224 364 191 q 389 159 389 120 q 389 62 333 26 q 278 -11 190 -11 q 115 -11 68 16 q 22 43 22 84 q 22 106 40 122 q 59 138 84 138 q 109 138 123 124 q 138 109 140 94 q 140 52 153 34 q 166 16 197 16 q 234 16 260 29 q 286 41 286 64 q 286 111 183 155 q 79 200 79 275 z"},">":{"x_min":0,"x_max":667,"ha":667,"o":"m 103 594 l 642 369 l 642 287 l 103 62 l 103 159 l 519 328 l 103 496 z"},"l":{"x_min":0,"x_max":323,"ha":323,"o":"m 270 140 l 297 131 q 231 -11 132 -11 q 95 -11 73 9 q 52 30 52 60 q 52 84 66 136 l 197 625 l 130 625 l 138 655 l 209 655 q 236 655 279 660 l 320 665 l 340 665 l 189 101 q 182 80 182 65 q 182 49 196 49 q 224 49 270 140 z"},"8":{"x_min":0,"x_max":490,"ha":490,"o":"m 329 328 l 329 326 q 408 311 440 271 q 471 230 471 188 q 471 116 409 52 q 346 -11 235 -11 q 141 -11 87 35 q 34 82 34 150 q 34 216 84 265 q 134 313 236 333 l 236 335 q 114 366 114 466 q 114 539 181 593 q 249 648 343 648 q 416 648 467 613 q 518 578 518 514 q 518 379 329 328 z m 340 614 q 312 614 294 594 q 275 575 259 504 q 243 433 243 388 q 243 367 259 357 q 275 346 296 346 q 324 346 341 368 q 357 389 373 463 q 389 537 389 573 q 389 614 340 614 z m 277 315 q 249 315 226 297 q 203 278 186 195 q 169 112 169 77 q 169 25 230 25 q 262 25 281 41 q 301 58 319 142 q 338 226 338 262 q 338 287 320 301 q 303 315 277 315 z"},"\\":{"x_min":0,"x_max":281,"ha":281,"o":"m -47 665 l 50 665 l 388 -49 l 292 -49 z"},"e":{"x_min":0,"x_max":490,"ha":490,"o":"m 426 131 l 451 114 q 364 -11 206 -11 q 120 -11 77 33 q 34 77 34 137 q 34 231 114 313 q 193 395 324 395 q 389 395 422 369 q 455 342 455 297 q 455 158 187 168 q 171 104 171 77 q 171 24 233 24 q 340 24 426 131 z m 195 195 q 291 191 326 231 q 361 271 361 312 q 361 335 347 352 q 333 368 305 368 q 265 368 240 327 q 215 285 195 195 z"},"b":{"x_min":0,"x_max":564,"ha":564,"o":"m 83 189 l 194 625 l 128 625 l 135 655 l 206 655 q 226 655 238 655 q 250 656 271 659 l 315 665 l 335 665 l 250 334 l 252 332 q 307 395 376 395 q 441 395 484 352 q 526 309 526 243 q 526 129 455 59 q 383 -11 253 -11 q 167 -11 121 25 q 74 61 74 116 q 74 154 83 189 z m 357 366 q 328 366 302 346 q 276 326 256 301 q 236 275 231 256 l 210 174 q 193 112 193 75 q 193 45 211 31 q 229 16 258 16 q 304 16 323 45 q 343 75 370 184 q 398 293 398 322 q 398 366 357 366 z"},"%":{"x_min":0,"x_max":927,"ha":927,"o":"m 339 666 q 397 666 429 626 q 462 585 462 529 q 462 444 406 382 q 351 321 274 321 q 217 321 184 361 q 151 402 151 461 q 151 542 206 604 q 260 666 339 666 z m 280 522 l 265 461 q 251 405 251 370 q 251 345 274 345 q 292 345 307 377 q 322 409 341 491 q 360 573 360 603 l 360 612 q 360 641 338 641 q 320 641 309 617 q 297 593 280 522 z m 767 666 l 833 666 l 219 -42 l 154 -42 z m 715 302 q 770 302 803 261 q 836 221 836 164 q 836 78 779 18 q 722 -42 646 -42 q 592 -42 559 -4 q 525 34 525 95 q 525 179 579 240 q 634 302 715 302 z m 654 158 l 639 97 q 625 41 625 6 q 625 -18 648 -18 q 683 -18 708 98 q 733 214 733 248 q 733 278 712 278 q 694 278 683 255 q 672 233 654 158 z"},"m":{"x_min":0,"x_max":884,"ha":884,"o":"m 54 0 l 145 356 l 68 356 l 75 386 l 134 386 q 178 386 208 389 l 266 395 l 287 395 l 265 313 l 267 311 q 342 395 425 395 q 517 395 518 306 q 576 365 611 380 q 647 395 680 395 q 726 395 749 370 q 773 345 773 313 q 773 290 763 252 l 729 118 q 716 68 716 58 q 716 45 730 45 q 777 45 830 148 l 859 143 q 789 -11 669 -11 q 635 -11 612 10 q 590 30 590 61 q 590 89 598 118 l 640 280 q 651 321 651 333 q 651 361 633 361 q 626 361 618 357 q 609 354 599 347 q 589 341 578 331 q 567 321 554 309 q 542 296 527 280 q 508 260 499 222 l 441 0 l 310 0 l 364 202 q 388 290 392 309 q 396 329 396 333 q 396 360 379 360 q 364 360 346 349 q 328 337 310 321 q 293 305 274 285 l 259 267 q 252 259 251 254 l 185 0 z"},"#":{"x_min":0,"x_max":668,"ha":668,"o":"m 78 489 l 232 489 l 273 680 l 353 680 l 312 489 l 497 489 l 537 680 l 618 680 l 577 489 l 665 489 l 665 408 l 562 408 l 529 248 l 665 248 l 665 168 l 513 168 l 472 -22 l 391 -22 l 433 168 l 246 168 l 207 -22 l 126 -22 l 166 168 l 78 168 l 78 248 l 183 248 l 216 408 l 78 408 z m 481 408 l 296 408 l 263 249 l 448 249 z"},",":{"x_min":0,"x_max":271,"ha":271,"o":"m 44 -174 l 34 -147 q 191 -78 191 13 q 191 30 182 30 q 177 30 164 10 q 150 -9 119 -9 q 93 -9 74 11 q 56 31 56 63 q 56 98 80 122 q 104 146 140 146 q 179 146 208 115 q 238 83 238 38 q 238 -28 189 -84 q 141 -140 44 -174 z"},"n":{"x_min":0,"x_max":594,"ha":594,"o":"m 44 0 l 133 356 l 55 356 l 63 386 l 122 386 q 159 386 208 391 l 255 395 l 276 395 l 255 316 l 257 314 q 333 395 417 395 q 458 395 484 376 q 510 356 510 319 q 510 305 503 276 l 463 111 q 455 78 455 65 q 455 51 465 51 q 506 51 549 147 l 579 140 q 546 63 502 26 q 457 -11 409 -11 q 372 -11 349 10 q 325 32 325 60 q 325 82 335 122 l 381 307 q 387 323 387 338 q 387 355 370 355 q 360 355 346 349 q 332 344 314 333 q 297 321 272 299 q 247 277 245 271 l 176 0 z"},"h":{"x_min":0,"x_max":594,"ha":594,"o":"m 346 663 l 257 321 l 259 319 q 333 395 416 395 q 460 395 487 375 q 513 354 513 321 q 513 300 503 261 l 462 101 q 455 76 455 64 q 455 49 468 49 q 479 49 504 72 q 529 94 553 148 l 583 139 q 552 64 505 26 q 458 -11 408 -11 q 371 -11 348 10 q 325 31 325 61 q 325 87 338 136 l 385 313 q 390 330 390 337 q 390 357 372 357 q 340 357 293 316 q 247 276 245 270 l 175 0 l 44 0 l 206 625 l 122 625 l 130 655 l 201 655 q 242 655 285 659 l 326 663 z"},"z":{"x_min":0,"x_max":490,"ha":490,"o":"m 52 226 l 142 395 q 282 348 393 348 q 412 348 417 368 q 425 395 447 395 q 471 395 471 372 q 471 350 434 323 l 148 114 l 150 112 q 187 120 218 120 q 272 120 311 105 q 349 91 370 91 q 380 91 389 99 q 398 108 398 119 q 398 129 387 129 q 368 129 363 130 q 359 130 351 140 q 343 149 343 164 q 343 183 354 195 q 365 207 384 207 q 407 207 421 187 q 434 167 434 145 q 434 91 396 40 q 357 -11 309 -11 q 270 -11 163 30 q 115 48 94 48 q 91 48 86 45 q 81 42 81 39 q 81 38 84 32 q 88 25 88 15 q 88 -11 55 -11 q 19 -11 19 21 q 19 43 36 62 q 52 82 87 107 l 343 294 l 341 296 q 262 275 198 275 q 169 275 118 282 l 82 214 z"},"B":{"x_min":0,"x_max":760,"ha":760,"o":"m 155 655 l 511 655 q 629 655 680 610 q 732 565 732 508 q 732 446 676 400 q 620 355 523 342 l 523 340 q 697 314 697 189 q 697 121 634 60 q 572 0 395 0 l 30 0 l 37 34 l 118 34 l 242 621 l 148 621 z m 475 621 l 398 621 l 342 358 l 415 358 q 471 358 500 369 q 529 380 549 429 q 568 478 568 543 q 568 577 552 599 q 536 621 475 621 z m 429 324 l 336 324 l 275 34 l 366 34 q 433 34 460 46 q 486 59 509 120 q 531 182 531 246 q 531 281 513 302 q 495 324 429 324 z"},"K":{"x_min":0,"x_max":760,"ha":760,"o":"m 98 34 l 221 621 l 131 621 l 139 655 l 461 655 l 454 621 l 379 621 l 256 34 l 346 34 l 339 0 l 18 0 l 26 34 z m 680 621 l 458 420 l 639 34 l 729 34 l 722 0 l 390 0 l 397 34 l 472 34 l 327 345 l 628 621 l 528 621 l 535 655 l 782 655 l 775 621 z"},"R":{"x_min":0,"x_max":760,"ha":760,"o":"m 138 621 l 145 655 l 510 655 q 633 655 676 610 q 719 565 719 512 q 719 448 662 403 q 604 358 482 347 l 482 345 q 562 315 595 271 q 628 226 631 149 q 634 71 652 57 q 669 43 689 43 q 705 43 729 53 l 744 23 q 696 -5 630 -5 q 568 -5 528 19 q 487 42 471 77 q 455 112 455 187 q 454 262 437 297 q 419 333 351 333 l 319 333 l 257 34 l 348 34 l 341 0 l 22 0 l 29 34 l 102 34 l 224 621 z m 381 621 l 327 367 l 396 367 q 462 367 488 382 q 514 397 530 451 q 547 505 547 549 q 547 583 526 602 q 505 621 440 621 z"},"T":{"x_min":0,"x_max":698,"ha":698,"o":"m 167 655 l 768 655 l 722 437 l 686 437 q 690 471 690 489 q 690 621 558 621 l 528 621 l 403 34 l 504 34 l 497 0 l 142 0 l 149 34 l 247 34 l 372 621 q 296 623 246 588 q 196 554 127 437 l 91 437 z"},"P":{"x_min":0,"x_max":698,"ha":698,"o":"m 326 299 l 270 34 l 364 34 l 356 0 l 27 0 l 34 34 l 114 34 l 236 621 l 142 621 l 149 655 l 505 655 q 645 655 689 605 q 734 555 734 497 q 734 416 656 357 q 579 299 395 299 z m 391 621 l 333 333 l 386 333 q 445 333 475 340 q 505 347 521 366 q 538 386 554 449 q 571 511 571 557 q 571 587 552 604 q 533 621 465 621 z"},"|":{"x_min":0,"x_max":566,"ha":566,"o":"m 276 664 l 367 664 l 367 -257 l 276 -257 z"},"t":{"x_min":0,"x_max":375,"ha":375,"o":"m 375 386 l 368 356 l 266 356 l 198 89 q 194 71 194 60 q 194 41 214 41 q 281 41 334 154 l 364 144 q 302 -5 172 -5 q 124 -5 96 19 q 69 42 69 73 q 69 87 70 98 q 72 109 84 158 l 133 356 l 63 356 l 71 386 l 141 386 l 168 488 l 302 501 l 273 386 z"},"M":{"x_min":0,"x_max":969,"ha":969,"o":"m 425 655 l 498 216 l 500 216 l 753 655 l 1013 655 l 1006 621 l 929 621 l 805 34 l 893 34 l 886 0 l 555 0 l 562 34 l 649 34 l 772 619 l 770 621 l 413 0 l 380 0 l 277 615 l 275 615 l 154 34 l 251 34 l 244 0 l 24 0 l 31 34 l 119 34 l 244 621 l 154 621 l 161 655 z"},"g":{"x_min":0,"x_max":542,"ha":542,"o":"m 110 162 q 77 198 77 240 q 77 306 141 351 q 206 395 281 395 q 374 395 437 328 q 459 409 501 409 q 519 409 531 397 q 543 385 543 366 q 543 345 531 335 q 519 324 505 324 l 474 334 q 465 334 459 322 q 454 310 454 303 q 454 302 458 285 q 463 269 463 259 q 463 194 403 151 q 342 107 259 107 q 185 107 131 144 q 85 102 85 73 q 85 50 112 43 q 139 37 192 37 q 313 37 356 31 q 398 26 427 0 q 457 -27 457 -67 q 457 -147 378 -201 q 300 -256 161 -256 q 71 -256 18 -229 q -34 -202 -34 -154 q -34 -96 73 -53 q 23 -21 23 33 q 23 105 110 162 z m 291 368 q 266 368 246 350 q 226 332 212 270 q 198 207 198 183 q 198 134 244 134 q 299 134 320 210 q 341 287 341 321 q 341 339 328 354 q 316 368 291 368 z m 97 -66 q 60 -94 60 -131 q 60 -169 94 -198 q 129 -226 199 -226 q 269 -226 323 -198 q 377 -171 377 -127 q 377 -104 355 -93 q 333 -82 225 -82 q 145 -82 97 -66 z"},"j":{"x_min":0,"x_max":323,"ha":323,"o":"m 191 558 q 191 585 211 606 q 231 628 260 628 q 290 628 312 607 q 333 587 333 557 q 333 528 312 507 q 291 486 262 486 q 232 486 212 507 q 191 528 191 558 z m 306 393 l 199 -29 q 164 -168 97 -212 q 31 -256 -38 -256 q -81 -256 -104 -233 q -128 -209 -128 -181 q -128 -157 -110 -139 q -91 -121 -67 -121 q -45 -121 -30 -135 q -15 -150 -15 -171 q -15 -174 -17 -192 q -19 -209 -19 -210 q -19 -223 -3 -223 q 20 -223 39 -146 l 166 356 l 77 356 l 85 386 l 158 386 q 194 386 243 390 l 288 393 z"},"i":{"x_min":0,"x_max":323,"ha":323,"o":"m 152 556 q 152 585 173 605 q 194 626 223 626 q 251 626 272 605 q 293 585 293 556 q 293 527 272 506 q 252 485 223 485 q 194 485 173 506 q 152 527 152 556 z m 270 393 l 191 81 q 190 79 188 69 q 186 59 186 54 q 186 40 199 40 q 240 40 278 137 l 304 118 q 255 -11 149 -11 q 56 -11 56 54 q 56 73 64 104 l 130 356 l 69 356 l 76 386 l 144 386 q 176 386 213 390 l 246 393 z"},"y":{"x_min":0,"x_max":542,"ha":542,"o":"m 240 -24 l 126 277 q 115 311 100 311 q 81 311 67 267 q 53 223 50 217 l 25 232 q 69 395 158 395 q 184 395 207 379 q 229 363 252 303 l 318 131 q 362 234 390 315 q 418 395 470 395 q 492 395 508 379 q 525 363 525 341 q 525 318 512 301 q 499 284 473 284 q 464 284 446 289 q 429 293 427 293 q 416 293 410 277 l 374 181 q 309 15 220 -121 q 132 -256 29 -256 q -3 -256 -26 -237 q -48 -218 -48 -187 q -48 -160 -31 -141 q -13 -122 16 -122 q 44 -122 56 -135 q 67 -149 74 -172 q 80 -196 94 -196 q 120 -196 158 -153 q 196 -111 240 -24 z"},"@":{"x_min":0,"x_max":832,"ha":832,"o":"m 546 436 l 661 440 l 575 144 q 571 136 566 111 q 560 86 560 70 q 560 57 571 45 q 583 34 598 34 q 658 34 729 119 q 801 205 801 326 q 801 453 719 538 q 637 623 500 623 q 315 623 200 495 q 84 368 84 189 q 84 24 189 -79 q 293 -182 452 -182 q 574 -182 681 -116 q 789 -49 838 78 l 867 78 q 814 -58 704 -133 q 594 -208 451 -208 q 272 -208 153 -92 q 34 24 34 205 q 34 396 162 524 q 291 653 490 653 q 648 653 738 562 q 828 471 828 335 q 828 199 749 100 q 669 0 546 0 q 498 0 474 24 q 450 47 450 81 q 450 104 461 147 l 459 149 q 378 0 299 0 q 261 0 240 30 q 220 61 220 104 q 220 238 306 345 q 392 453 463 453 q 522 453 529 380 l 531 380 z m 509 358 q 509 384 499 402 q 490 419 474 419 q 436 419 388 308 q 341 197 341 129 q 341 111 349 99 q 357 86 369 86 q 402 86 456 178 q 509 270 509 358 z"},".":{"x_min":0,"x_max":271,"ha":271,"o":"m 43 69 q 43 100 66 122 q 88 144 120 144 q 152 144 175 122 q 198 100 198 68 q 198 35 175 12 q 151 -11 121 -11 q 89 -11 66 13 q 43 37 43 69 z"},"p":{"x_min":0,"x_max":594,"ha":594,"o":"m 2 -217 l 146 356 l 61 356 l 69 386 l 169 386 q 205 386 239 391 l 270 395 l 287 395 l 272 335 l 274 333 q 326 395 396 395 q 456 395 501 354 q 547 314 547 238 q 547 136 477 63 q 408 -9 310 -9 q 242 -9 200 46 l 133 -217 l 216 -217 l 208 -247 l -80 -247 l -73 -217 z m 255 266 l 212 95 q 221 57 244 37 q 267 18 295 18 q 320 18 341 41 q 361 64 390 181 q 419 298 419 329 q 419 344 409 356 q 398 368 378 368 q 337 368 298 324 q 259 280 255 266 z"},"X":{"x_min":0,"x_max":760,"ha":760,"o":"m 135 655 l 457 655 l 450 621 l 369 621 l 457 417 l 637 621 l 550 621 l 557 655 l 769 655 l 762 621 l 683 621 l 474 381 l 625 34 l 713 34 l 706 0 l 385 0 l 392 34 l 471 34 l 369 264 l 169 34 l 255 34 l 248 0 l 31 0 l 38 34 l 122 34 l 355 299 l 214 621 l 128 621 z"},"*":{"x_min":0,"x_max":490,"ha":490,"o":"m 317 473 q 355 477 398 500 q 441 522 464 522 q 484 522 502 503 q 520 484 520 461 q 520 440 504 426 q 488 411 469 411 q 451 411 403 430 q 355 449 324 449 q 332 421 381 376 q 419 338 419 311 q 419 287 399 269 q 380 252 358 252 q 307 252 307 322 l 309 376 q 309 407 300 439 q 271 412 254 372 q 236 333 221 316 q 207 300 178 300 q 159 300 140 316 q 121 332 121 355 q 121 381 139 393 q 156 404 204 419 q 252 435 284 456 q 262 471 185 480 q 108 490 108 541 q 108 563 123 582 q 139 601 161 601 q 179 601 192 590 q 206 579 269 496 q 271 492 295 477 q 298 500 298 506 q 298 525 292 556 q 286 588 286 603 q 286 633 305 651 q 323 669 348 669 q 372 669 386 653 q 400 637 400 617 q 400 593 364 547 q 328 501 317 473 z"},"Y":{"x_min":0,"x_max":698,"ha":698,"o":"m 128 655 l 437 655 l 430 621 l 355 621 l 453 340 l 639 621 l 552 621 l 559 655 l 755 655 l 748 621 l 678 621 l 464 296 l 410 34 l 499 34 l 492 0 l 171 0 l 179 34 l 254 34 l 310 301 l 195 621 l 121 621 z"},"c":{"x_min":0,"x_max":490,"ha":490,"o":"m 426 123 l 449 103 q 361 -11 229 -11 q 140 -11 90 34 q 40 80 40 141 q 40 241 130 318 q 220 395 329 395 q 388 395 430 371 q 472 347 472 307 q 472 278 451 261 q 429 244 403 244 q 380 244 363 258 q 346 272 346 289 q 346 298 350 315 q 354 332 354 337 q 354 349 344 359 q 334 368 319 368 q 259 368 220 243 q 180 119 180 82 q 180 22 246 22 q 348 22 426 123 z"},"!":{"x_min":0,"x_max":323,"ha":323,"o":"m 205 219 l 171 219 q 199 329 199 406 l 196 526 q 196 666 291 666 q 322 666 342 648 q 361 629 361 600 q 361 569 349 539 q 337 509 293 423 q 249 338 205 219 z m 74 66 q 74 99 97 121 q 120 144 152 144 q 184 144 206 121 q 229 99 229 66 q 229 35 206 12 q 183 -11 152 -11 q 120 -11 97 12 q 74 35 74 66 z"},"/":{"x_min":0,"x_max":281,"ha":281,"o":"m 261 665 l 357 665 l 20 -49 l -76 -49 z"},"[":{"x_min":0,"x_max":385,"ha":385,"o":"m 487 654 l 479 624 l 372 624 l 163 -208 l 270 -208 l 262 -239 l 33 -239 l 258 654 z"},"6":{"x_min":0,"x_max":490,"ha":490,"o":"m 493 648 l 493 615 q 276 588 223 358 l 225 356 q 280 406 337 406 q 397 406 440 359 q 483 313 483 247 q 483 150 407 70 q 332 -11 230 -11 q 142 -11 93 48 q 43 107 43 192 q 43 351 164 489 q 285 626 493 648 z m 301 361 q 242 361 208 263 q 173 166 173 78 q 173 53 188 38 q 203 23 228 23 q 255 23 276 41 q 296 59 319 174 q 341 289 341 316 q 341 333 331 347 q 321 361 301 361 z"},"r":{"x_min":0,"x_max":479,"ha":479,"o":"m 51 0 l 142 358 l 70 358 l 77 388 l 157 388 q 188 388 226 392 l 262 395 l 283 395 l 257 298 l 259 296 q 325 395 396 395 q 426 395 448 378 q 469 361 469 330 q 469 304 451 288 q 433 272 413 272 q 382 272 362 300 q 342 328 331 328 q 309 328 275 276 q 241 225 218 136 l 182 0 z"},"2":{"x_min":0,"x_max":490,"ha":490,"o":"m 471 201 l 429 0 l 38 0 l 54 81 q 235 208 305 303 q 375 399 375 515 q 375 606 299 606 q 252 606 219 581 q 186 556 186 529 q 186 519 202 519 q 233 519 253 501 q 274 482 274 453 q 274 419 254 399 q 233 380 203 380 q 168 380 147 408 q 126 437 126 471 q 126 538 184 593 q 242 648 333 648 q 416 648 468 604 q 520 559 520 501 q 520 421 454 344 q 388 267 213 152 l 181 131 l 181 129 l 365 129 q 406 129 416 138 q 427 147 437 201 z"},"{":{"x_min":0,"x_max":394,"ha":394,"o":"m 368 677 l 368 655 q 273 636 273 564 q 273 526 285 485 q 297 443 297 397 q 297 351 258 304 q 219 257 137 240 l 137 238 q 226 213 262 169 q 298 124 298 79 q 298 54 286 0 q 274 -53 274 -85 q 274 -161 368 -179 l 368 -202 q 268 -202 218 -152 q 167 -102 167 -48 q 167 -10 180 40 q 193 89 193 123 q 193 208 98 223 l 98 253 q 146 261 170 290 q 193 318 193 357 q 193 392 180 445 q 168 497 168 521 q 168 574 215 623 q 261 672 368 677 z"},"9":{"x_min":0,"x_max":490,"ha":490,"o":"m 60 -11 l 60 22 q 277 45 331 281 l 329 283 q 282 231 218 231 q 165 231 125 272 q 84 312 84 383 q 84 486 154 567 q 225 648 327 648 q 409 648 458 592 q 507 537 507 456 q 507 299 391 153 q 275 7 60 -11 z m 328 614 q 295 614 277 586 q 258 558 238 460 q 218 361 218 323 q 218 277 252 277 q 315 277 349 379 q 383 480 383 556 q 383 614 328 614 z"}," ":{"x_min":0,"x_max":245,"ha":245,"o":""},"I":{"x_min":0,"x_max":375,"ha":375,"o":"m 138 655 l 438 655 l 430 621 l 362 621 l 236 34 l 315 34 l 308 0 l 15 0 l 22 34 l 79 34 l 203 621 l 131 621 z"},"H":{"x_min":0,"x_max":813,"ha":813,"o":"m 328 356 l 576 356 l 631 621 l 541 621 l 548 655 l 870 655 l 863 621 l 789 621 l 665 34 l 753 34 l 746 0 l 427 0 l 434 34 l 508 34 l 569 322 l 320 322 l 261 34 l 349 34 l 342 0 l 22 0 l 29 34 l 104 34 l 228 621 l 137 621 l 144 655 l 466 655 l 458 621 l 384 621 z"},"4":{"x_min":0,"x_max":490,"ha":490,"o":"m 479 648 l 385 203 l 448 203 l 460 260 l 494 260 l 460 98 l 426 98 l 442 169 l 378 169 l 351 34 l 434 34 l 426 0 l 118 0 l 125 34 l 215 34 l 242 169 l 37 169 l 37 197 l 414 648 z m 249 203 l 304 462 l 302 464 l 85 203 z"},"~":{"x_min":0,"x_max":667,"ha":667,"o":"m 608 412 l 643 412 q 642 330 602 282 q 562 234 500 234 q 467 234 433 244 q 399 255 324 287 q 248 320 216 320 q 147 320 135 234 l 100 234 q 104 328 144 370 q 185 412 239 412 q 297 412 427 356 q 498 325 527 325 q 559 325 582 347 q 604 369 608 412 z"},"D":{"x_min":0,"x_max":813,"ha":813,"o":"m 229 621 l 152 621 l 159 655 l 478 655 q 547 655 583 648 q 619 642 665 616 q 711 591 750 535 q 789 479 789 389 q 789 293 747 212 q 705 131 644 79 q 584 27 528 14 q 471 0 400 0 l 45 0 l 52 34 l 107 34 z m 386 621 l 264 34 l 342 34 q 428 34 465 50 q 502 65 534 104 q 566 142 598 289 q 630 436 630 504 q 630 621 460 621 z"},"^":{"x_min":0,"x_max":570,"ha":570,"o":"m 97 314 l 293 665 l 347 665 l 543 314 l 459 314 l 320 563 l 181 314 z"},"0":{"x_min":0,"x_max":490,"ha":490,"o":"m 208 -11 q 148 -11 102 48 q 55 108 55 211 q 55 366 149 507 q 243 648 350 648 q 420 648 462 588 q 505 527 505 440 q 505 276 413 133 q 320 -11 208 -11 z m 179 75 l 179 69 q 179 50 192 36 q 204 23 224 23 q 254 23 271 54 q 289 84 334 295 q 380 506 380 568 q 380 614 339 614 q 311 614 292 585 q 274 557 262 504 l 214 291 q 179 130 179 75 z"},"F":{"x_min":0,"x_max":646,"ha":646,"o":"m 720 655 l 678 454 l 645 454 q 643 550 611 585 q 579 621 511 621 l 381 621 l 326 360 l 354 360 q 421 360 451 385 q 481 410 503 473 l 537 473 l 480 198 l 446 198 q 449 223 449 237 q 449 278 427 302 q 405 326 343 326 l 319 326 l 260 34 l 348 34 l 341 0 l 20 0 l 27 34 l 101 34 l 224 621 l 134 621 l 141 655 z"},"`":{"x_min":0,"x_max":333,"ha":333,"o":"m 80 636 l 254 636 l 314 473 l 295 473 z"},"k":{"x_min":0,"x_max":542,"ha":542,"o":"m 43 0 l 206 625 l 134 625 l 142 655 l 218 655 q 245 655 289 660 l 327 665 l 347 665 l 173 0 z m 499 136 l 526 124 q 467 -9 368 -9 q 331 -9 310 13 q 289 35 289 70 q 289 101 298 123 q 307 146 314 168 q 322 190 322 204 q 322 212 309 222 q 283 200 264 200 q 242 200 242 220 q 242 233 256 244 q 271 254 299 251 q 313 265 355 330 q 396 395 455 395 q 484 395 504 378 q 524 360 524 331 q 524 302 507 288 q 490 273 469 273 q 448 273 435 288 q 421 302 421 309 l 423 333 q 417 343 411 343 q 396 343 371 301 q 346 259 334 245 q 424 226 424 146 q 424 136 419 105 q 414 74 414 71 q 414 53 427 53 q 453 53 487 115 q 488 119 499 136 z"},"u":{"x_min":0,"x_max":594,"ha":594,"o":"m 530 386 l 460 110 q 452 94 452 65 q 452 49 462 49 q 500 49 546 145 l 576 137 q 542 61 497 25 q 452 -11 406 -11 q 370 -11 345 11 q 321 33 322 77 q 244 -11 145 -11 q 106 -11 83 9 q 59 30 59 59 q 59 77 70 121 l 129 356 l 66 356 l 74 386 l 123 386 q 158 386 206 390 l 250 393 l 269 393 l 196 103 q 188 68 188 58 q 188 31 208 31 q 224 31 246 43 q 269 56 291 78 q 313 100 325 123 q 337 146 342 164 l 399 386 z"},"]":{"x_min":0,"x_max":385,"ha":385,"o":"m -67 -239 l -59 -209 l 48 -209 l 257 623 l 150 623 l 158 654 l 387 654 l 162 -239 z"},"U":{"x_min":0,"x_max":813,"ha":813,"o":"m 653 655 l 863 655 l 856 621 l 775 621 l 693 234 q 680 169 657 119 q 634 68 574 29 q 514 -11 407 -11 q 274 -11 210 40 q 145 91 145 162 q 145 200 156 252 l 234 621 l 144 621 l 151 655 l 478 655 l 471 621 l 389 621 l 313 258 q 300 191 300 161 q 300 109 337 71 q 375 33 449 33 q 526 33 570 67 q 614 100 632 145 q 650 190 664 258 l 740 621 l 645 621 z"},"o":{"x_min":0,"x_max":542,"ha":542,"o":"m 220 -11 q 138 -11 86 31 q 34 74 34 148 q 34 249 123 322 q 212 395 321 395 q 401 395 455 355 q 508 314 508 239 q 508 139 422 64 q 335 -11 220 -11 z m 310 368 q 273 368 247 342 q 221 315 193 206 q 166 96 166 75 q 166 50 182 33 q 199 16 227 16 q 264 16 291 40 q 318 64 347 177 q 376 290 376 312 q 376 368 310 368 z"},"N":{"x_min":0,"x_max":760,"ha":760,"o":"m 412 655 l 614 238 l 616 238 l 694 621 l 615 621 l 622 655 l 810 655 l 802 621 l 728 621 l 599 -5 l 564 -5 l 259 621 l 257 621 l 137 34 l 213 34 l 206 0 l 19 0 l 26 34 l 101 34 l 224 621 l 137 621 l 145 655 z"},"+":{"x_min":0,"x_max":667,"ha":667,"o":"m 102 373 l 326 373 l 326 597 l 416 597 l 416 373 l 640 373 l 640 283 l 416 283 l 416 59 l 326 59 l 326 283 l 102 283 z"},"G":{"x_min":0,"x_max":813,"ha":813,"o":"m 760 657 l 721 469 l 687 469 q 677 550 633 593 q 588 636 520 636 q 434 636 380 585 q 326 533 290 371 q 255 209 255 150 q 255 100 292 61 q 330 23 400 23 q 525 23 545 115 q 545 118 550 141 l 565 211 l 477 211 l 484 245 l 796 245 l 789 211 l 721 211 l 700 110 q 569 -11 394 -11 q 259 -11 177 72 q 96 155 96 268 q 96 419 228 545 q 359 670 519 670 q 570 670 649 634 q 666 626 681 626 q 710 626 726 657 z"},"q":{"x_min":0,"x_max":579,"ha":579,"o":"m 546 386 l 391 -217 l 468 -217 l 460 -247 l 170 -247 l 178 -217 l 259 -217 l 328 43 l 326 45 q 281 -9 200 -9 q 124 -9 82 33 q 40 75 40 144 q 40 239 118 317 q 196 395 292 395 q 329 395 356 383 q 383 371 400 333 l 402 333 l 415 386 z m 217 18 q 251 18 292 48 q 333 77 359 171 q 385 264 385 285 q 385 317 365 343 q 345 368 311 368 q 278 368 255 336 q 231 304 202 202 q 172 100 172 63 q 172 18 217 18 z"},"d":{"x_min":0,"x_max":594,"ha":594,"o":"m 611 663 l 470 118 q 462 87 462 71 q 462 61 468 53 q 474 46 480 46 q 509 46 546 145 l 567 131 q 521 -11 419 -11 q 344 -11 332 58 q 277 -11 186 -11 q 115 -11 75 33 q 34 77 34 137 q 34 240 111 318 q 187 395 289 395 q 366 395 395 333 l 470 625 l 367 625 l 374 655 l 451 655 q 485 655 539 659 l 590 663 z m 358 188 l 374 252 q 379 273 379 284 q 379 312 359 340 q 339 368 306 368 q 276 368 253 343 q 229 318 197 205 q 164 91 164 57 q 164 39 177 29 q 190 19 207 19 q 252 19 293 56 q 334 94 358 188 z"},"1":{"x_min":0,"x_max":490,"ha":490,"o":"m 426 648 l 298 34 l 420 34 l 413 0 l 37 0 l 44 34 l 156 34 l 270 588 l 145 588 l 152 621 q 276 627 341 635 z"},"5":{"x_min":0,"x_max":490,"ha":490,"o":"m 122 319 l 190 584 q 198 614 210 624 q 223 634 268 634 l 432 634 q 467 634 476 640 q 484 646 498 675 l 534 675 q 516 600 495 562 q 475 524 454 515 q 434 507 379 507 l 206 507 l 171 372 q 218 382 259 382 q 352 382 409 338 q 466 295 466 217 q 466 124 390 56 q 313 -11 210 -11 q 134 -11 85 24 q 37 60 37 116 q 37 149 58 171 q 79 192 110 192 q 138 192 158 174 q 178 157 178 128 q 178 87 141 66 q 126 58 126 52 q 126 40 149 31 q 172 23 195 23 q 236 23 259 51 q 281 78 298 148 q 315 217 315 259 q 315 292 290 318 q 266 343 221 343 q 191 343 164 331 l 139 319 z"}}}
